<svg enable-background="new 0 0 260 150" viewBox="0 0 260 150" xmlns="http://www.w3.org/2000/svg"><path d="m129.2 150-1.7-1.3c-.4-.3-36.5-28.3-48.8-38.4-29.1-24-31.1-53-31-61.3 0-.8.1-21.5 9.9-33.4 6.4-7.7 15.3-15.5 33.2-15.5h.5c21.5.2 33.3 11.1 38.7 18.4 7-8.9 19-18.2 38.7-18.5h.5c14.5 0 24.6 4.7 33.6 15.6 8.7 10 9.6 26.6 9.5 33.2.1 8.5-1.9 37.6-31.1 61.4-24.4 19.9-49.9 38.4-50.2 38.6zm-38.4-144.1c-14.6 0-22 5.3-28.7 13.4-8.5 10.3-8.6 29.5-8.6 29.7-.1 7.7 1.8 34.4 28.9 56.8 10.7 8.8 39.6 31.3 46.9 37 6.2-4.5 27.6-20.3 48.2-37.1 27.2-22.2 29.1-49 29-56.7 0-6.3-.7-21.2-8.1-29.7-8-9.6-16.4-13.5-29.2-13.5h-.4c-19.8.3-30.8 10.7-36.5 19.4l-2.5 3.8-2.4-3.9c-3.4-5.7-13.7-18.9-36.2-19.2z"/><g clip-rule="evenodd" fill-rule="evenodd"><path d="m142.8 58.5c-1.4-.6-3.3-1.6-3.5-4.1-2 1.1-1.7 3.7.2 4.3.6.2 1.4-.1 2.1.1 1.4.3 2.6 1.8 3.9 2.6.4 1.1-.2 2.5.2 3.4.4.8 1.3.7 1.9 1.4.1.8.2 1.6.6 2.6-1.9 1.6-1 4.4-3.2 5.4-.7.4-1.8-.1-2.5.2-1.1.5-1.3 1.3-1.9 2.3.2.9.8.9 1.1 1.5.3 1.9-.6 3.2-1.4 4.6-.5.2-.9.3-1.4.5-.7.6-1 1.6-2 2.1-.4.3-.8.1-1.4.4-1.6.6-2.7 1-3.8 0-3.1 1.5-6.6-.8-6-3.9-1.1-.3-1.9-.8-3.1-.4-.7.2-1 .9-1.7 1.1s-2.4.1-3.6-.6c-.4-.2-.6-.7-1.1-1-1-.6-2-.3-2.5-1.2-.9-1.5-.1-2.7.1-3.9-2.5-2.3-2.5-4.9-.6-7.3 1.1-1.4 2.5-1.9 1.9-3.3-.5-1.3-1.6-1.3-2.7-1.6 1.1 2.3.8 4-.3 5.4-4.8-6.7-6.8-13.3-4.3-18.9 2-4.5 6.8-8.6 12.6-10.3 6.4-1.9 14.2.3 18.1 4.8 3 3.4 3.5 9.4 4.3 13.8m-19.6 8.1c-.7 0-1.6.5-2.3.3 0 0-.1 0-.1.1-1.4.5-2.5 1.9-4.2 2.3-.6 1-1.8 1.7-2.1 2.9.2.7.9.8 1.3 1.5.5 1 .5 2.4 1.2 3.2 1 .3 2.6.8 4.3.2 1.8-.7 5.8-4.3 6.2-5.5.4-1.4-.5-1.8-1-2.8-.4-.7-.3-1.3-.9-1.9-.8 0-1.6-.4-2.4-.3m11.4-4.4c-1 1.1-3.2 1.5-3.5 3.3 1.1 1.3.2 2.6 1.1 3.8.9 1.3 6.4 1.4 8.9.7 1.5-.4 2.8-1.7 2.9-2.5.4-2-1.7-3-.9-5.3-2.3-1.5-5.5-.5-8.5 0m-1.5 10.9c-.9-.3-1.7-1-2.7-1.1-1.1 1.6-2 7 1.5 7.2-.1-.7.1-1.5 0-2.3 0-.4-.8-1.1 0-1.4 1.1.5 1.4 2.7 2.7 2.9 1.3-1.5-.5-4-1.5-5.3"/><path d="m131.8 93.8h-.1c-6.6-.1-14.2-1-21.9 1.9-2.4.9-4.8 2.1-6.8.6-1.1-2.7-1.3-4.9 1.1-6-1.3-2.6.9-7.1 3.5-5.7.8.4 1.3 1.8 1.9 2.3 1.5 1 4.6.8 7 .9 6.3.3 11.3.5 18 .6 1.3 0 2.9.3 3.5.1 0 0 .4-.2.6-.5 1-1 3-2.7 3.8-3.4 3.2-2.8 5-4.3 8.8-7 1.5-1.1 3.6-2.5 4.1-3.6.7-1.5 0-4.3 1.3-5.4 1.6 0 2.4-1.5 3.4-1.6 1.8-.3 2.5 1.4 2.6 3.6 1.7.3 3.5.6 4.3 3.5.3 1.9-2.8 2.5-5 3.5-5.8 2.5-12.5 6.7-16.1 10.1l-.6.7c4.4-.4 10.6 0 16-.8.6-.1 2.4-.5 3.4-1.1.7-.4 1-1.5 2-1.8.7-.2 3.7.8 4 1.3.4.7-.3 2.2.1 3.1.6 1.3 3 1.4 3.5 2.4.9 1.7-.3 3.7-1.4 4.2s-2.7-.1-4.2-.4c-6.9-1.3-13.6-1-21.1-1.2-1.2 0-2.7-.1-4.3-.2-1.4-.1-3.5-.4-4.3-.2 0 0-.1.2-.2.2-.7.3-1.5 1.3-2.4 2.1-3.9 3.4-7.8 6.7-11.5 10.1-1.5 1.4-3.3 2.8-4.2 4.2-1.2 1.9-1.5 6.8-3.7 8.2-1.9 1.2-4.3 1-6 .9-1.1-1.5-.5-2.3-1.3-3.5-.7-1.1-2.1-.8-2.7-1.6-.5-.7-.4-1.5-.6-2.4 1.3-.6 1.7-2.9 3.1-3.4 1-.4 2.7.7 3.6.6.4 0 1.2-.4 1.5-.6 1.4-.7 2.8-2.5 4.2-3.7 4-3.4 8.3-7.1 12.4-10.5.2-.2.7-.5.7-.5"/></g></svg>